<svg xmlns="http://www.w3.org/2000/svg" viewBox="0 0 200 200" role="img" aria-label="The Drey Dossier — REAL Election Integrity Division seal">
  <!-- Outer gold ring -->
  <circle cx="100" cy="100" r="96" fill="#ffbe2e" stroke="#8b6a1c" stroke-width="2"/>
  <circle cx="100" cy="100" r="86" fill="none" stroke="#8b6a1c" stroke-width="1.5"/>

  <!-- Circular text: THE DREY DOSSIER (top) -->
  <defs>
    <path id="topArc" d="M 100 100 m -76 0 a 76 76 0 0 1 152 0" fill="none"/>
    <path id="bottomArc" d="M 100 100 m -76 0 a 76 76 0 0 0 152 0" fill="none"/>
  </defs>
  <text font-family="Georgia, serif" font-weight="700" font-size="13.5" fill="#162e51" letter-spacing="3">
    <textPath href="#topArc" startOffset="50%" text-anchor="middle">★ THE DREY DOSSIER ★</textPath>
  </text>
  <text font-family="Georgia, serif" font-weight="700" font-size="11" fill="#162e51" letter-spacing="2">
    <textPath href="#bottomArc" startOffset="50%" text-anchor="middle">REAL ELECTION INTEGRITY</textPath>
  </text>

  <!-- Inner navy disk -->
  <circle cx="100" cy="100" r="52" fill="#162e51"/>
  <circle cx="100" cy="100" r="52" fill="none" stroke="#8b6a1c" stroke-width="1.5"/>

  <!-- Center monogram: "DD" quill and check -->
  <!-- Torch (integrity) -->
  <g transform="translate(100,100)">
    <!-- Flame -->
    <path d="M 0 -30 C -6 -22 -6 -18 0 -12 C 6 -18 6 -22 0 -30 Z" fill="#ffbe2e"/>
    <!-- Handle -->
    <rect x="-3" y="-12" width="6" height="24" fill="#ffbe2e"/>
    <!-- Base -->
    <rect x="-8" y="12" width="16" height="4" fill="#ffbe2e"/>
    <!-- Checkmark across torch base -->
    <path d="M -18 4 L -6 16 L 20 -10" fill="none" stroke="#ffbe2e" stroke-width="3" stroke-linecap="round" stroke-linejoin="round"/>
  </g>

  <!-- Bottom banner text -->
  <text x="100" y="178" font-family="Georgia, serif" font-weight="700" font-size="9" fill="#162e51" text-anchor="middle" letter-spacing="1.5">EST. 2026</text>
</svg>
